<svg id="Layer_1" viewBox="0 0 24 24"
    xmlns="http://www.w3.org/2000/svg" data-name="Layer 1">
    <path d="m10.5 2.5v-1c0-.829.672-1.5 1.5-1.5s1.5.671 1.5 1.5v1c0 .829-.672 1.5-1.5 1.5s-1.5-.671-1.5-1.5zm7 1.5c.828 0 1.5-.671 1.5-1.5v-1c0-.829-.672-1.5-1.5-1.5s-1.5.671-1.5 1.5v1c0 .829.672 1.5 1.5 1.5zm-11 0c.828 0 1.5-.671 1.5-1.5v-1c0-.829-.672-1.5-1.5-1.5s-1.5.671-1.5 1.5v1c0 .829.672 1.5 1.5 1.5zm2 11h-.926c-.848-.427-3.66-2.065-4.555-5.353-.048-.405.086-.586.484-.647h16.993c.311 0 .503.262.504.505.003.827.674 1.495 1.5 1.495h.006c.828-.003 1.497-.677 1.494-1.505-.007-1.927-1.579-3.495-3.504-3.495h-16.992c-2.244-.062-4.029 2.288-3.379 4.435 1.059 3.892 4.003 6.047 5.556 6.945l-.747 1.69c-1.107.257-1.934 1.245-1.934 2.43 0 1.381 1.119 2.5 2.5 2.5s2.5-1.119 2.5-2.5c0-.441-.124-.85-.325-1.21l1.021-2.31c.735-.097 1.304-.719 1.304-1.48 0-.829-.672-1.5-1.5-1.5zm15.5 2.974c0 3.208-2.507 5.831-5.669 6.016-2.642.155-4.939-1.57-5.956-4.014-.95-2.283.052-4.425 1.125-5.752.28-.346.827-.283 1.007.123.254.575.17 1.505.708 1.505 1.137 0 .876-3.27 2.145-5.416.225-.381.748-.455 1.078-.161 2.05 1.829 5.562 4.532 5.562 7.699zm-4.655.479-.894-.894c-.249-.249-.652-.249-.901 0l-.894.894c-.763.763-.899 2.015-.197 2.835.813.948 2.271.948 3.083 0 .703-.819.566-2.072-.197-2.835z"/>
</svg>