<?xml version="1.0" encoding="utf-8"?>
<!-- Uploaded to SVGRepo https://www.svgrepo.com -->
<svg version="1.1" id="Layer_1" xmlns="http://www.w3.org/2000/svg" xmlns:xlink="http://www.w3.org/1999/xlink" x="0px" y="0px"
	 width="256px" height="241px" viewBox="0 0 256 241" enable-background="new 0 0 256 241" xml:space="preserve">
<path d="M254,188V2H2v186h111v29H75v22h106v-22h-38v-29H254z M19,19h217v151H19L19,19z M127.923,146.85c28.615,0,52-23.231,52-52
	s-23.231-52-52-52S76.077,66.235,76.077,95.004C76.077,123.619,99.308,146.85,127.923,146.85z M125.051,99.26
	c-9.538-3.333-15.487-8.154-15.487-16.718c0-7.897,5.231-14.103,14.821-16.051v-8.564h7.179v8.154
	c5.949,0,10.256,1.231,13.436,2.923l-2.923,10.256c-2.359-0.974-6.205-2.615-11.487-2.615c-5.282,0-8.154,2.615-8.154,5.231
	c0,3.59,3.333,4.974,10.513,7.897c9.795,3.59,14.359,8.564,14.359,16.718s-4.974,14.359-15.487,16.718v8.154h-7.179v-7.897
	c-6.205,0-12.462-1.641-15.487-3.333l2.615-10.513c3.333,1.641,8.564,3.59,14.103,3.59c5.949,0,8.872-2.615,8.872-6.205
	C134.744,103.414,131.923,101.927,125.051,99.26z"/>
</svg>
