<?xml version="1.0"?>
<!-- Uploaded to: SVG Repo, www.svgrepo.com, Generator: SVG Repo Mixer Tools -->
<svg fill="#000000" width="800px" height="800px" viewBox="0 0 52 52"
     data-name="Layer 1" id="Layer_1"
     xmlns="http://www.w3.org/2000/svg">
    <path d="M14,16H2a2,2,0,0,1-2-2V2A2,2,0,0,1,2,0H14a2,2,0,0,1,2,2V14A2,2,0,0,1,14,16ZM2.5,13.5h11V2.5h-11Z"/>
    <path d="M14,34H2a2,2,0,0,1-2-2V20a2,2,0,0,1,2-2H14a2,2,0,0,1,2,2V32A2,2,0,0,1,14,34ZM2.5,31.5h11V20.5h-11Z"/>
    <path d="M14,52H2a2,2,0,0,1-2-2V38a2,2,0,0,1,2-2H14a2,2,0,0,1,2,2V50A2,2,0,0,1,14,52ZM2.5,49.5h11V38.5h-11Z"/>
    <path d="M32,16H20a2,2,0,0,1-2-2V2a2,2,0,0,1,2-2H32a2,2,0,0,1,2,2V14A2,2,0,0,1,32,16ZM20.5,13.5h11V2.5h-11Z"/>
    <path d="M32,34H20a2,2,0,0,1-2-2V20a2,2,0,0,1,2-2H32a2,2,0,0,1,2,2V32A2,2,0,0,1,32,34ZM20.5,31.5h11V20.5h-11Z"/>
    <path d="M32,52H20a2,2,0,0,1-2-2V38a2,2,0,0,1,2-2H32a2,2,0,0,1,2,2V50A2,2,0,0,1,32,52ZM20.5,49.5h11V38.5h-11Z"/>
    <path d="M50,16H38a2,2,0,0,1-2-2V2a2,2,0,0,1,2-2H50a2,2,0,0,1,2,2V14A2,2,0,0,1,50,16ZM38.5,13.5h11V2.5h-11Z"/>
    <path d="M50,34H38a2,2,0,0,1-2-2V20a2,2,0,0,1,2-2H50a2,2,0,0,1,2,2V32A2,2,0,0,1,50,34ZM38.5,31.5h11V20.5h-11Z"/>
    <path d="M50,52H38a2,2,0,0,1-2-2V38a2,2,0,0,1,2-2H50a2,2,0,0,1,2,2V50A2,2,0,0,1,50,52ZM38.5,49.5h11V38.5h-11Z"/>
</svg>